<?xml version="1.0" standalone="no"?>
<!DOCTYPE svg PUBLIC "-//W3C//DTD SVG 20010904//EN"
 "http://www.w3.org/TR/2001/REC-SVG-20010904/DTD/svg10.dtd">
<svg version="1.0" xmlns="http://www.w3.org/2000/svg"
 width="267.000000pt" height="267.000000pt" viewBox="0 0 267.000000 267.000000"
 preserveAspectRatio="xMidYMid meet">
<metadata>
Created by potrace 1.14, written by Peter Selinger 2001-2017
</metadata>
<g transform="translate(0.000000,267.000000) scale(0.100000,-0.100000)"
fill="#000000" stroke="none">
<path d="M0 1335 l0 -1335 1335 0 1335 0 0 1335 0 1335 -1335 0 -1335 0 0
-1335z m1751 977 c110 -29 167 -59 227 -119 58 -58 105 -146 123 -231 17 -84
7 -435 -14 -492 -29 -76 -85 -147 -149 -190 -98 -65 -134 -72 -388 -79 -184
-5 -231 -9 -256 -23 -31 -17 -56 -57 -69 -110 l-7 -28 -124 0 -123 0 -13 43
c-7 23 -12 83 -13 132 0 145 45 212 172 252 33 10 112 17 253 22 178 5 209 9
233 25 53 36 61 67 65 231 3 166 -5 198 -61 239 -28 20 -40 21 -365 20 -323
-1 -343 -2 -474 -27 -76 -15 -139 -27 -142 -27 -8 0 -68 271 -62 285 7 18 140
60 241 75 134 21 317 28 600 25 233 -2 280 -6 346 -23z m-534 -1557 c84 -25
123 -89 123 -201 0 -155 -86 -223 -268 -212 -134 8 -185 49 -204 161 -14 78 3
164 39 207 14 17 44 36 71 44 62 19 176 20 239 1z"/>
</g>
</svg>
